# xmcd
#
# Track frame offsets: 
#        150
#        11105
#        22279
#        34823
#        48263
#        58685
#        71128
#        81645
#        93409
#        102562
#        115345
#        128132
#        140282
#        153668
#        167673
#        181070
#        193737
#        204692
#        217980
#        230323
#        242292
#        253849
#        266414
#        277309
#        289855
#        302013
#        314055
#        324146
#
# Disc length: 4482 seconds
#
# Revision: 1
# Processed by: cddbd v1.5.2PL0 Copyright (c) Steve Scherf et al.
# Submitted via: ExactAudioCopyFreeDBPlugin 1.0
#
DISCID=a811801c
DTITLE=Various Artist - The R&B Hits of 1955: Red Hot Rockin' Rhythm and Blues
DYEAR=1955
DGENRE=R&B
TTITLE0=Fats Domino - Ain't That A Shame
TTITLE1=Johnny Ace - Pledging My Love
TTITLE2=Clyde McPhatter And The Drifters - What'cha Gonna Do
TTITLE3=Etta James - The Wallflower
TTITLE4=The Five Keys - Close Your Eyes
TTITLE5=Arthur Gunter - Baby Let's Play House
TTITLE6=Ray Charles - Blackjack
TTITLE7=The Charms - Two Hearts
TTITLE8=Faye Adams - You Ain't Been True To Me
TTITLE9=B.B. King - Every Day I Have The Blues
TTITLE10=Gene And Eunice - Ko Ko Mo (I Love You So)
TTITLE11=Johnny 'Guitar' Watson - Hot Little Mama
TTITLE12=The Penguins - Earth Angel
TTITLE13=LaVern Baker - Tweedlee Dee
TTITLE14=The Cardinals - The Door Is Still Open
TTITLE15=Joe Turner And His Blue Kings - Flip Flop And Fly
TTITLE16=Earl King - Those Lonely, Lonely Nights
TTITLE17=Muddy Waters - Manish Boy
TTITLE18=Ruth Brown - As Long As I'm Moving
TTITLE19=The Platters - Only You (And You Alone)
TTITLE20=Smiley Lewis - I Hear You Knocking
TTITLE21=Bo Diddley - Bo Diddley
TTITLE22=Nappy Brown - Don't Be Angry
TTITLE23=The Robins - Smokey Joe's Cafe
TTITLE24=Varetta Dillard - Johnny Has Gone
TTITLE25=Sonny Boy Williamson and His Houserockers - From The Bottom
TTITLE26=The Hawketts - Mardi Gras Mambo
TTITLE27=Little Walter - My Babe
EXTD=
EXTT0=
EXTT1=
EXTT2=
EXTT3=
EXTT4=
EXTT5=
EXTT6=
EXTT7=
EXTT8=
EXTT9=
EXTT10=
EXTT11=
EXTT12=
EXTT13=
EXTT14=
EXTT15=
EXTT16=
EXTT17=
EXTT18=
EXTT19=
EXTT20=
EXTT21=
EXTT22=
EXTT23=
EXTT24=
EXTT25=
EXTT26=
EXTT27=
PLAYORDER=
